<?xml version="1.0" encoding="UTF-8"?>
<svg version="1.1" xmlns="http://www.w3.org/2000/svg" viewBox="186 72 913 1087">
<path d="M0 0 C1.73841641 -0.00955262 1.73841641 -0.00955262 3.51195234 -0.01929823 C6.70678159 -0.03184398 9.90062297 -0.02221003 13.09538872 -0.00290792 C16.57929534 0.01256305 20.06311179 -0.0011875 23.54702175 -0.01112705 C29.64566749 -0.02453611 35.74407785 -0.01946413 41.84271049 -0.00211811 C50.91155828 0.02360439 59.98023947 0.02057707 69.0491114 0.01183931 C84.30873993 -0.00201264 99.5682694 0.00764232 114.82788277 0.03104496 C129.94008147 0.05420234 145.05223635 0.06785198 160.16445351 0.06856251 C161.57511304 0.06864268 161.57511304 0.06864268 163.01427074 0.06872447 C166.83186672 0.06891309 170.6494627 0.06903465 174.46705869 0.0690668 C210.27169675 0.06940754 246.07626812 0.09646033 281.88088069 0.1372589 C313.69025611 0.17339015 345.49959277 0.19252217 377.30898857 0.19528866 C378.82631218 0.19542591 378.82631218 0.19542591 380.37428879 0.19556594 C383.43452473 0.19584238 386.49476067 0.19611387 389.55499661 0.19638497 C393.61966713 0.196748 397.68433766 0.1971214 401.74900818 0.19750214 C402.75196514 0.19759236 403.75492211 0.19768259 404.7882717 0.19777555 C436.12852921 0.20075733 467.46877952 0.21822335 498.80903021 0.23818975 C509.20635451 0.24480489 519.60367767 0.25049463 530.00100374 0.25338006 C530.9369814 0.25364124 531.87295906 0.25390241 532.83729967 0.2541715 C533.77135458 0.25443063 534.70540949 0.25468975 535.66776909 0.25495673 C553.65391078 0.25995291 571.64002382 0.27116943 589.62614979 0.29625703 C598.64012066 0.30866092 607.65405665 0.31570509 616.66803625 0.31491465 C622.68884592 0.31495245 628.70961832 0.32227623 634.73041331 0.33554131 C638.16082493 0.34290596 641.59116143 0.34716808 645.02157976 0.3426655 C648.7193946 0.33950609 652.41698503 0.34859043 656.11477661 0.36076355 C657.17603121 0.35693876 658.2372858 0.35311397 659.33069962 0.34917328 C674.51868288 0.43741338 674.51868288 0.43741338 680.40859795 4.20554256 C680.97562431 4.82082821 681.54265068 5.43611385 682.12685966 6.07004452 C683.1071917 7.095816 683.1071917 7.095816 684.10732841 8.14231014 C684.7505706 8.8570953 685.39381279 9.57188046 686.05654716 10.30832577 C687.36905509 11.71050008 688.68415352 13.11025414 690.00185966 14.50754452 C690.56663017 15.12846981 691.13140068 15.7493951 691.71328545 16.38913631 C693.52657968 18.2134069 695.35203826 19.84626746 697.30894279 21.50714779 C703.17396257 26.62324808 708.61656237 32.16603825 714.11147881 37.67136288 C715.32275431 38.88128108 716.53424195 40.09098694 717.745924 41.30049801 C721.01674442 44.56678327 724.28442221 47.83619527 727.55138516 51.10633826 C730.98189582 54.53939283 734.41485953 57.96999305 737.84742546 61.40099239 C743.6097685 67.16151966 749.37000801 72.92414403 755.12905693 78.68796444 C761.77323374 85.33758273 768.42100516 91.98359107 775.07065493 98.62773603 C780.79501904 104.34755215 786.51741957 110.06932725 792.23820394 115.79272372 C795.64832588 119.20439916 799.05910671 122.61540852 802.47166443 126.02464771 C805.68083439 129.23091444 808.88752038 132.43964548 812.09236145 135.65023899 C813.26411437 136.8233064 814.43670464 137.99553813 815.61022377 139.16683865 C821.09892574 144.64612517 826.54465255 150.11939321 831.56893635 156.03602695 C833.58003608 158.3750576 835.75790579 160.52413375 837.96279716 162.67941952 C838.85611748 163.56049374 839.74943779 164.44156796 840.66982841 165.34934139 C842.50902256 167.15341656 844.35016642 168.95550624 846.19326591 170.75559139 C861.75465239 186.12610949 861.75465239 186.12610949 862.056691 192.09315538 C862.05675876 193.14730699 862.05682652 194.2014586 862.05689633 195.2875542 C862.06065161 197.11122492 862.06065161 197.11122492 862.06448275 198.97173747 C862.06220556 200.3358611 862.05983736 201.69998457 862.05738831 203.06410789 C862.0584304 204.5076079 862.05991087 205.95110764 862.06179267 207.3946068 C862.06571443 211.39329649 862.06334233 215.39196229 862.06001472 219.39065162 C862.0574922 223.72893158 862.06073229 228.0672077 862.06325805 232.40548712 C862.06688157 240.01971696 862.06675294 247.63393972 862.06421089 255.2481699 C862.06044094 266.57095307 862.06235565 277.89373023 862.0654192 289.21651336 C862.07069614 309.43715498 862.07022399 329.65779345 862.06734029 349.87843538 C862.06482827 367.57909602 862.06416636 385.27975551 862.06536293 402.9804163 C862.06547751 404.7391691 862.06547751 404.7391691 862.0655944 406.53345227 C862.06590572 411.29269039 862.06622412 416.0519285 862.06655416 420.81116662 C862.06961627 465.4993078 862.06683511 510.18744697 862.06145727 554.87558785 C862.05671412 594.59153086 862.05713359 634.30747067 862.06191826 674.02341366 C862.06727223 718.6143696 862.06939634 763.20532375 862.06630599 807.79627997 C862.06598527 812.54981776 862.06567243 817.30335555 862.06536293 822.05689335 C862.06528385 823.22738715 862.06520478 824.39788096 862.0651233 825.60384427 C862.06398528 843.28855634 862.06531719 860.97326712 862.06784248 878.65797901 C862.07070016 898.77103744 862.06999041 918.88409221 862.06456174 938.99715018 C862.06162293 950.25707815 862.0614374 961.51699822 862.06520791 972.776926 C862.06744835 980.29644754 862.06605822 987.81596274 862.06170315 995.33548335 C862.05932213 999.62123817 862.05851572 1003.90697727 862.06210913 1008.19273161 C862.06534714 1012.09439741 862.06395584 1015.99603358 862.05892847 1019.89769724 C862.05792427 1021.29774413 862.05857958 1022.69779349 862.06113441 1024.09783841 C862.08909222 1040.59405996 861.48079811 1055.72094642 849.93154716 1068.62082577 C849.38111748 1069.28598202 848.83068779 1069.95113827 848.26357841 1070.63645077 C838.86905042 1081.13268248 827.40636456 1084.18633794 813.93154716 1085.62082577 C809.07086181 1085.8761912 804.22470377 1085.89539181 799.35806656 1085.88088799 C797.93840095 1085.88389246 796.51873696 1085.88776671 795.09907579 1085.89242032 C791.22248599 1085.90262747 787.34598823 1085.90056504 783.46939091 1085.89636496 C779.24260741 1085.89398687 775.01584577 1085.90318305 770.78907073 1085.91084915 C763.38919349 1085.92266637 755.98934088 1085.92706309 748.58945465 1085.92652798 C737.58554217 1085.92573313 726.58166066 1085.93630088 715.57775648 1085.94894355 C693.63727792 1085.97365169 671.69680696 1085.98246235 649.7563164 1085.98748003 C648.62091616 1085.98774121 647.48551591 1085.98800239 646.31570959 1085.98827147 C644.60916112 1085.98866189 644.60916112 1085.98866189 642.86813692 1085.98906018 C630.25221423 1085.99214432 617.63629363 1085.99864954 605.02037239 1086.00527287 C566.91475782 1086.02491438 528.8091455 1086.04132348 490.70352554 1086.0441494 C489.48539267 1086.04424346 488.2672598 1086.04433752 487.01221382 1086.04443443 C482.07575175 1086.04481291 477.13928968 1086.04517691 472.20282761 1086.04553741 C468.4874008 1086.04580913 464.77197398 1086.04608581 461.05654716 1086.04636288 C459.82883146 1086.0464509 458.60111575 1086.04653892 457.33619654 1086.04662961 C418.73937685 1086.04953665 380.14260719 1086.07165012 341.54580498 1086.10788631 C298.17833615 1086.14860042 254.81090141 1086.17230785 211.44341242 1086.17260891 C206.82063841 1086.17270573 202.19786441 1086.17287246 197.57509041 1086.17308903 C195.86773181 1086.1731552 195.86773181 1086.1731552 194.12588112 1086.17322271 C175.80198738 1086.17434296 157.47814375 1086.19175692 139.15426615 1086.21490835 C120.74625821 1086.2377351 102.33831807 1086.24198615 83.93030117 1086.22735905 C72.99260379 1086.21920033 62.05511982 1086.22492445 51.11744826 1086.25053989 C43.81186751 1086.26627008 36.50643856 1086.26383635 29.20086151 1086.24663317 C25.03821754 1086.23734454 20.87598516 1086.23591877 16.71337299 1086.25659924 C12.92227419 1086.2752738 9.13192339 1086.27069409 5.34085296 1086.2480083 C3.34392876 1086.24192737 1.346975 1086.26024575 -0.64986348 1086.27972236 C-12.87727838 1086.16059725 -22.37995444 1081.89184856 -32.06845284 1074.62082577 C-32.89216377 1074.01883358 -33.71587471 1073.41684139 -34.56454659 1072.79660702 C-43.84579828 1064.7316192 -47.96693407 1054.05333532 -48.87394733 1042.19862859 C-49.24796582 1035.31880069 -49.21263289 1028.43804203 -49.20826054 1021.55037022 C-49.21082444 1019.83348688 -49.21381968 1018.11660414 -49.21720424 1016.39972222 C-49.22522986 1011.68857992 -49.22709878 1006.97745248 -49.2279272 1002.26630417 C-49.22990387 997.13827719 -49.23758234 992.01025814 -49.24449974 986.88223588 C-49.25729326 976.71473269 -49.26469096 966.54723203 -49.27039853 956.37972266 C-49.27746713 944.20009231 -49.29022458 932.02046951 -49.30294772 919.84084399 C-49.33549022 888.31271613 -49.35544327 856.78458401 -49.37342949 825.25644532 C-49.37740851 818.30069246 -49.38159384 811.34493972 -49.3857849 804.38918699 C-49.41694161 752.61197631 -49.44401392 700.83476398 -49.46073168 649.05754649 C-49.46461824 637.06158576 -49.46863838 625.06562507 -49.47271592 613.0696644 C-49.47322679 611.56388318 -49.47373552 610.05810196 -49.47424212 608.55232074 C-49.49051678 560.17925192 -49.52752114 511.80623304 -49.57839592 463.4331889 C-49.61495283 428.66441479 -49.64865565 393.89565115 -49.66094494 359.12685871 C-49.66119903 358.41176405 -49.66145312 357.69666939 -49.66171491 356.95990519 C-49.66723135 341.26156612 -49.67107191 325.56322707 -49.67334038 309.8648872 C-49.67427833 303.54860268 -49.67543446 297.23231821 -49.67665482 290.91603374 C-49.67678234 290.22477437 -49.67690986 289.53351499 -49.67704125 288.82130835 C-49.68124798 266.56289345 -49.70401749 244.30454551 -49.73640975 222.04615523 C-49.76983757 199.00399513 -49.78180753 175.96191552 -49.7689743 152.91972567 C-49.76222982 139.63623462 -49.77221643 126.35300119 -49.8061013 113.06955033 C-49.82708303 104.19771405 -49.82628714 95.32605252 -49.80776788 86.4542112 C-49.79783529 81.39856976 -49.79736796 76.34341965 -49.82343071 71.28782471 C-49.84697533 66.68405842 -49.8426412 62.08117328 -49.81653402 57.4774285 C-49.81197428 55.8267116 -49.81736416 54.17592765 -49.8342163 52.52529047 C-49.97572328 37.70224882 -46.53974008 26.46161728 -36.47860909 15.02316952 C-26.33727798 4.91471145 -14.24650905 -0.16940082 0 0 Z " fill="#F6F2EE" transform="translate(236.068452835083,72.37917423248291)"/>
<path d="M0 0 C300.63 0 601.26 0 911 0 C911 311.59665871 911 311.59665871 899 325 C898.17435547 325.99773437 898.17435547 325.99773437 897.33203125 327.015625 C887.93750325 337.51185671 876.47481739 340.56551218 863 342 C858.13931465 342.25536543 853.29315661 342.27456604 848.42651939 342.26006222 C847.00685378 342.26306669 845.58718979 342.26694094 844.16752863 342.27159455 C840.29093882 342.2818017 836.41444107 342.27973927 832.53784375 342.27553919 C828.31106024 342.27316111 824.08429861 342.28235728 819.85752356 342.29002339 C812.45764633 342.30184061 805.05779372 342.30623733 797.65790749 342.30570221 C786.653995 342.30490737 775.6501135 342.31547512 764.64620931 342.32811778 C742.70573076 342.35282592 720.76525979 342.36163658 698.82476924 342.36665427 C697.68936899 342.36691544 696.55396874 342.36717662 695.38416243 342.36744571 C693.67761396 342.36783612 693.67761396 342.36783612 691.93658976 342.36823442 C679.32066707 342.37131855 666.70474647 342.37782377 654.08882523 342.3844471 C615.98321065 342.40408861 577.87759834 342.42049771 539.77197838 342.42332363 C538.55384551 342.42341769 537.33571264 342.42351175 536.08066665 342.42360866 C531.14420458 342.42398714 526.20774252 342.42435114 521.27128045 342.42471164 C517.55585363 342.42498336 513.84042682 342.42526004 510.125 342.42553711 C508.89728429 342.42562513 507.66956859 342.42571315 506.40464938 342.42580384 C467.80782969 342.42871088 429.21106002 342.45082435 390.61425781 342.48706055 C347.24678898 342.52777465 303.87935425 342.55148209 260.51186526 342.55178314 C255.88909125 342.55187997 251.26631725 342.55204669 246.64354324 342.55226326 C244.93618465 342.55232943 244.93618465 342.55232943 243.19433395 342.55239694 C224.87044021 342.55351719 206.54659658 342.57093115 188.22271899 342.59408258 C169.81471104 342.61690933 151.4067709 342.62116038 132.99875401 342.60653328 C122.06105662 342.59837456 111.12357265 342.60409868 100.1859011 342.62971413 C92.88032035 342.64544432 85.5748914 342.64301059 78.26931434 342.6258074 C74.10667037 342.61651877 69.94443799 342.615093 65.78182583 342.63577347 C61.99072703 342.65444803 58.20037622 342.64986833 54.4093058 342.62718253 C52.41238159 342.62110161 50.41542783 342.63941998 48.41858935 342.6588966 C36.19117445 342.53977148 26.6884984 338.27102279 17 331 C15.76443359 330.09701172 15.76443359 330.09701172 14.50390625 329.17578125 C3.82363987 319.89511296 1.12731317 308.52775798 0 295 C0 197.65 0 100.3 0 0 Z " fill="#3C884E" transform="translate(187,816)"/>
<path d="M0 0 C1.19115921 -0.00511093 2.38231842 -0.01022186 3.60957336 -0.01548767 C6.86863492 -0.02698801 10.12753834 -0.02945897 13.3866148 -0.02692437 C16.12157493 -0.02585014 18.85651198 -0.03075071 21.59146714 -0.03552979 C28.06083304 -0.04661831 34.53014091 -0.04706926 40.99951172 -0.04101562 C47.62835672 -0.03500672 54.2569878 -0.04720924 60.88579631 -0.06858569 C66.6076086 -0.08634517 72.32935377 -0.09217984 78.05119252 -0.08894795 C81.45440175 -0.087154 84.85745921 -0.08957631 88.26064301 -0.10366249 C105.94192778 -0.16162555 123.42575477 0.00289105 140.31738281 5.8996582 C141.41880615 6.27924683 141.41880615 6.27924683 142.54248047 6.66650391 C155.78958409 11.48376241 166.29911568 19.3305681 176.12988281 29.2746582 C176.94199219 30.07645508 177.75410156 30.87825195 178.59082031 31.7043457 C195.60979336 49.42034153 201.30104207 72.11379806 200.89160156 96.06811523 C200.25195074 118.09793011 193.46473042 136.4894093 179.12988281 153.2746582 C178.46472656 154.08418945 177.79957031 154.8937207 177.11425781 155.7277832 C160.38119565 175.35000718 137.14800484 184.40027055 112.00488281 186.5871582 C108.71464527 186.84433491 105.42419629 187.0765912 102.12988281 187.2746582 C103.34886681 188.5952242 104.56785573 189.91578567 105.78686523 191.23632812 C106.86262969 192.40178084 107.93831125 193.56731007 109.01391602 194.73291016 C111.7681244 197.71733535 114.52345236 200.70070264 117.28222656 203.6809082 C121.76001047 208.5203813 126.22831161 213.36551843 130.62988281 218.2746582 C138.40750492 226.94593887 146.35996332 235.45617283 154.31738281 243.9621582 C158.83861432 248.79540893 163.30876793 253.66558546 167.70800781 258.6105957 C169.65147457 260.74840913 171.61966133 262.84919423 173.61425781 264.9387207 C174.23494141 265.59227539 174.855625 266.24583008 175.49511719 266.91918945 C176.71467969 268.20067793 177.93961086 269.47708757 179.17089844 270.74731445 C189.85260916 281.99758736 189.85260916 281.99758736 189.81738281 289.7121582 C189.49814946 295.76079006 187.43150908 300.02592078 183.12988281 304.2746582 C178.15002675 307.6126052 173.12647429 309.14688969 167.12988281 308.2746582 C161.15496712 306.00673811 156.91595632 302.61900038 152.56738281 298.0246582 C152.00075928 297.44184082 151.43413574 296.85902344 150.8503418 296.25854492 C147.49908925 292.78820744 144.25625365 289.24181182 141.13378906 285.5637207 C138.21204648 282.22621358 135.1656575 279.00830702 132.12988281 275.7746582 C127.99091647 271.36133568 123.89968978 266.92955976 119.95019531 262.3449707 C115.9537698 257.79967989 111.79808079 253.39454985 107.68505859 248.95483398 C96.20815568 236.55545473 96.20815568 236.55545473 91.81738281 231.4621582 C87.84417849 226.87915753 83.6774974 222.47767288 79.53173828 218.05151367 C74.91829227 213.12520881 70.33997544 208.16947224 65.79394531 203.1809082 C63.94744349 201.16654258 62.09158092 199.16744698 60.21582031 197.1809082 C44.61778659 180.5843709 44.61778659 180.5843709 44.79785156 168.19262695 C45.43851068 162.56236387 47.81763538 158.40967992 51.96759033 154.57780457 C58.37446553 149.91257101 63.57929227 149.44375022 71.36425781 149.57543945 C73.09678802 149.56555244 73.09678802 149.56555244 74.86431885 149.5554657 C78.53676897 149.53806799 82.207515 149.55987858 85.87988281 149.5871582 C89.53762818 149.59852517 93.19486219 149.60097267 96.8526001 149.5867157 C99.11998016 149.57943494 101.38748097 149.58715477 103.65472412 149.6131134 C120.47719834 149.60626321 135.78285117 144.40769367 148.01269531 132.59887695 C151.21596303 129.08237457 153.78347437 125.40492922 156.12988281 121.2746582 C156.50757813 120.61723633 156.88527344 119.95981445 157.27441406 119.2824707 C158.33081637 117.31210235 159.25072697 115.32992919 160.12988281 113.2746582 C160.43023438 112.59661133 160.73058594 111.91856445 161.04003906 111.2199707 C163.20072993 105.41122967 163.4116841 99.77818386 163.44238281 93.6496582 C163.44786133 92.85003662 163.45333984 92.05041504 163.45898438 91.2265625 C163.2920638 77.28149965 157.23073419 64.42473192 147.57519531 54.45825195 C134.76998503 43.02356737 120.83627181 40.16591489 104.21582031 40.06933594 C103.15151291 40.05943634 102.08720551 40.04953674 100.99064636 40.03933716 C97.49541397 40.007913 94.00016802 39.98304062 90.50488281 39.95825195 C88.0725063 39.93766593 85.64013324 39.91666903 83.20776367 39.89527893 C76.82263997 39.84022852 70.43748489 39.79074446 64.05230713 39.74243164 C57.52996039 39.69209189 51.0076589 39.63647108 44.48535156 39.58129883 C31.70023427 39.47392571 18.91507828 39.37225539 6.12988281 39.2746582 C6.13264819 40.5360238 6.13541357 41.79738939 6.13826275 43.09697819 C6.20324339 73.04265358 6.25270791 102.98831077 6.2830788 132.93403939 C6.2868309 136.62025164 6.29071387 140.30646375 6.29467773 143.99267578 C6.29546467 144.72653084 6.2962516 145.4603859 6.29706237 146.216479 C6.31011448 158.0972488 6.33376725 169.97797504 6.3613412 181.858719 C6.38940083 194.05045387 6.40606025 206.24216593 6.4121483 218.43393177 C6.41626359 225.95624866 6.42925903 233.4784424 6.45363221 241.00072139 C6.47137229 246.76988304 6.47324702 252.53896586 6.46920586 258.30814934 C6.47003175 260.67406345 6.47600658 263.03998219 6.48749924 265.40586853 C6.50241849 268.63533923 6.49883811 271.86428242 6.49064636 275.09376526 C6.49938489 276.03054865 6.50812341 276.96733204 6.51712674 277.93250281 C6.46985382 284.82464198 5.34970956 289.56153662 0.87988281 295.0246582 C-3.30840387 298.45143821 -7.04494603 300.08253492 -12.43261719 300.6496582 C-19.09915574 299.92239945 -22.52889226 296.95076992 -26.67089844 291.9934082 C-28.79826779 288.94440979 -28.99737815 286.26245523 -29.00992489 282.66431904 C-29.01561613 281.71231249 -29.02130737 280.76030594 -29.02717108 279.77945071 C-29.02835095 278.73141731 -29.02953083 277.68338391 -29.03074646 276.60359192 C-29.03583428 275.49186338 -29.0409221 274.38013483 -29.0461641 273.23471755 C-29.06192581 269.48997574 -29.07042344 265.74525327 -29.07885742 262.00048828 C-29.08596436 260.00519578 -29.09307752 258.00990326 -29.10069775 256.01461265 C-29.13401985 247.28503605 -29.1555424 238.55544769 -29.17389759 229.82582834 C-29.17869292 227.55272811 -29.1836762 225.27962835 -29.18870282 223.00652862 C-29.21967338 208.89050244 -29.24635829 194.77447215 -29.2631216 180.65842152 C-29.26707109 177.38881739 -29.27107409 174.11921335 -29.27514648 170.84960938 C-29.27615485 170.03696653 -29.27716321 169.22432369 -29.27820212 168.3870553 C-29.29520814 155.22347615 -29.33631679 142.06008502 -29.38716947 128.89659766 C-29.43895089 115.38151631 -29.4680645 101.86653164 -29.47531849 88.35135192 C-29.47998 80.76319582 -29.49472312 73.17534767 -29.53506279 65.58728981 C-29.56937763 59.12469287 -29.58329641 52.66245944 -29.57063865 46.19977663 C-29.56481491 42.90331891 -29.57193275 39.60779034 -29.59880829 36.31141472 C-29.62641748 32.73385323 -29.61701058 29.15821917 -29.59837341 25.5806427 C-29.61516834 24.54376291 -29.63196327 23.50688311 -29.64926714 22.43858272 C-29.5570699 15.35631063 -27.7905492 11.36676987 -22.87011719 6.2746582 C-16.06832185 -0.18704737 -8.89816321 -0.01970029 0 0 Z " fill="#3F8A51" transform="translate(537.8701171875,357.725341796875)"/>
<path d="M0 0 C1.29324944 -0.01248528 1.29324944 -0.01248528 2.61262512 -0.02522278 C5.479263 -0.04942026 8.34567294 -0.05811293 11.21240234 -0.06469727 C13.21145698 -0.07366633 15.21051094 -0.08278823 17.20956421 -0.09205627 C21.41462838 -0.10858222 25.6196127 -0.11625116 29.82470703 -0.11914062 C35.17282719 -0.12448441 40.52017751 -0.16198133 45.86808205 -0.20788479 C50.00695397 -0.23788871 54.14564725 -0.24486943 58.28461838 -0.24586678 C60.25310106 -0.25003409 62.22158603 -0.26232546 64.18996048 -0.28338432 C84.40957605 -0.48221708 102.23266887 3.50930946 117.38818359 17.89624023 C128.56825647 29.68787265 133.15630907 43.01141885 132.88037109 59.04467773 C132.32308172 74.24192483 126.65900672 88.16443581 116.05615234 99.12670898 C109.36055485 105.25153423 101.87727023 109.51862437 93.67333984 113.30639648 C100.1719186 123.23590191 106.98156414 132.93903267 113.8046875 142.64672852 C115.66256387 145.29105895 117.51811916 147.93699855 119.37255859 150.58374023 C120.27421753 151.87042603 120.27421753 151.87042603 121.1940918 153.18310547 C122.37810372 154.87531164 123.56026778 156.56881241 124.74047852 158.26367188 C127.31836024 161.96359054 129.90898673 165.64716127 132.58740234 169.27514648 C133.01883545 169.86884033 133.45026855 170.46253418 133.89477539 171.07421875 C135.01778501 172.61613058 136.15546955 174.14732566 137.29443359 175.67749023 C138.95168331 178.83706265 138.51535406 179.95131525 137.67333984 183.30639648 C133.08369098 183.48016003 128.49597675 183.60678591 123.90380859 183.69091797 C122.34389886 183.726003 120.78421743 183.7736873 119.22509766 183.83447266 C106.50332055 184.3178352 106.50332055 184.3178352 102.56103516 182.13891602 C100.91943811 180.30670699 99.84122841 178.47144613 98.67333984 176.30639648 C97.53280271 174.61484479 96.38330914 172.92931874 95.22802734 171.24780273 C94.15314218 169.60682502 93.07833218 167.96579789 92.00427246 166.32427979 C89.24313674 162.13800499 86.42553997 157.98940785 83.61865234 153.83374023 C82.33215291 151.92686692 81.04569518 150.01996547 79.75927734 148.11303711 C78.43897981 146.1566468 77.11866715 144.2002667 75.79833984 142.24389648 C73.80402094 139.2882716 71.80979462 136.33258428 69.81564331 133.37684631 C68.5826258 131.54932431 67.34949633 129.72187783 66.11624146 127.89451599 C65.56161224 127.07258255 65.00698303 126.25064911 64.43554688 125.40380859 C63.94893585 124.68277451 63.46232483 123.96174042 62.96096802 123.21885681 C61.86053468 121.58442916 60.76629734 119.94583273 59.67333984 118.30639648 C56.7003901 117.9687606 53.92591483 117.81726611 50.94677734 117.79467773 C49.65255356 117.76775093 49.65255356 117.76775093 48.33218384 117.74028015 C45.57095254 117.68601128 42.80989566 117.65222891 40.04833984 117.61889648 C38.17852381 117.58573798 36.30873085 117.55124971 34.43896484 117.51538086 C29.85054875 117.43027553 25.26218588 117.36354394 20.67333984 117.30639648 C20.68000168 118.08900345 20.68666351 118.87161041 20.69352722 119.67793274 C20.75361416 127.0497677 20.79930175 134.42148409 20.82877636 141.79349995 C20.84443895 145.58363089 20.86568763 149.37355965 20.8996582 153.16357422 C20.93223114 156.82050249 20.95018839 160.47723619 20.95797157 164.13429832 C20.96351886 165.53018444 20.97435134 166.92605979 20.99053001 168.32186317 C21.01227413 170.27534239 21.01356499 172.229017 21.01391602 174.18261719 C21.02057785 175.29514359 21.02723969 176.40766998 21.03410339 177.5539093 C20.67333984 180.30639648 20.67333984 180.30639648 19.32052612 182.16586304 C16.83079844 183.88978324 14.76068955 183.67810089 11.76318359 183.66967773 C10.60882813 183.6690332 9.45447266 183.66838867 8.26513672 183.66772461 C7.05921875 183.65161133 5.85330078 183.63549805 4.61083984 183.61889648 C2.79616211 183.62373047 2.79616211 183.62373047 0.94482422 183.62866211 C-8.0597609 183.57329574 -8.0597609 183.57329574 -10.32666016 181.30639648 C-10.57834244 178.27037811 -10.57834244 178.27037811 -10.58062744 174.28381348 C-10.58374742 173.55255989 -10.5868674 172.8213063 -10.59008193 172.06789351 C-10.59809196 169.60499603 -10.59172671 167.14234289 -10.58544922 164.67944336 C-10.58815775 162.91886754 -10.5917179 161.15829286 -10.59606934 159.39772034 C-10.60521202 154.60650687 -10.60164137 149.81537923 -10.59531116 145.0241642 C-10.59026087 140.01891466 -10.59493991 135.01367266 -10.5980835 130.00842285 C-10.60172598 121.60171179 -10.59691665 113.19503582 -10.58740234 104.78833008 C-10.57651726 95.05782175 -10.58004263 85.32739722 -10.59105515 75.59689093 C-10.60012 67.25463056 -10.60141725 58.91239548 -10.59617782 50.57013178 C-10.59305369 45.58233929 -10.59266087 40.59458624 -10.59925079 35.60679626 C-10.60501198 30.91845193 -10.60104997 26.23021604 -10.58946228 21.54188347 C-10.5868091 19.81728737 -10.58759193 18.09268221 -10.59198761 16.36808968 C-10.5974187 14.02159479 -10.59063895 11.6754517 -10.58062744 9.32897949 C-10.57987339 8.01341316 -10.57911934 6.69784683 -10.57834244 5.34241486 C-10.03994159 -1.15226109 -5.24366236 0.00425771 0 0 Z " fill="#F4F2ED" transform="translate(328.32666015625,885.693603515625)"/>
<path d="M0 0 C1.38131104 0.01873169 1.38131104 0.01873169 2.79052734 0.0378418 C11.79708903 0.26451441 20.4534928 1.57150544 29.25 3.4375 C30.78720703 3.72753906 30.78720703 3.72753906 32.35546875 4.0234375 C46.52527244 7.17228276 58.84712144 17.05499347 66.72265625 28.984375 C67.22667969 29.79390625 67.73070312 30.6034375 68.25 31.4375 C68.64058594 32.06140625 69.03117188 32.6853125 69.43359375 33.328125 C75.68633333 44.51979896 77.40091481 58.22096804 77.3918457 70.8503418 C77.39532013 71.64992813 77.39879456 72.44951447 77.40237427 73.27333069 C77.40968025 74.99636338 77.41505283 76.71940517 77.41866493 78.44244957 C77.4258991 81.18133812 77.44161704 83.92005452 77.46000671 86.65888977 C77.51214735 94.44175845 77.56039305 102.22452879 77.57592773 110.00756836 C77.5860789 114.78268971 77.61557767 119.55736954 77.65724754 124.33231544 C77.66945655 126.13853409 77.67469754 127.94481533 77.67244911 129.75107384 C77.65716443 146.03792373 79.96829631 160.60815483 91.375 173.125 C98.81764274 180.04535202 107.58048871 183.96301327 117.33984375 186.41796875 C121.67673936 187.93733755 124.29513043 190.16015255 127.03125 193.8203125 C129.23886769 198.56102998 128.96657764 203.33357438 128.25 208.4375 C126.00111466 213.92516466 122.58959 216.07013001 117.25 218.4375 C115.19753675 219.03558621 113.13420803 219.59742218 111.0625 220.125 C103.96606268 222.24503031 98.86968424 225.69419739 93.25 230.4375 C92.59257813 230.95957031 91.93515625 231.48164062 91.2578125 232.01953125 C82.53584212 239.67548303 78.54937432 251.2203266 77.25 262.4375 C76.94689681 268.07860083 76.99164505 273.73069833 77.00617027 279.37816238 C77.01183707 282.22347234 77.00248451 285.06838557 76.9889679 287.91366577 C76.95215517 295.99633637 76.93323427 304.07886864 76.94458008 312.16162109 C76.95049091 317.12827099 76.93188733 322.09435881 76.89869118 327.06089401 C76.89083295 328.9336019 76.89188121 330.80637267 76.90271568 332.6790657 C77.01684013 353.29543102 72.72653682 371.49122034 58.078125 386.86328125 C42.35900064 401.17115825 21.69733915 405.57640806 1.0625 405.8125 C0.28503418 405.82643799 -0.49243164 405.84037598 -1.29345703 405.85473633 C-6.49157971 405.81129641 -10.13760049 404.8687522 -14.75 402.4375 C-19.73286901 397.19237473 -20.21046096 392.53855775 -20.16796875 385.52734375 C-19.52188351 380.75114353 -17.30276914 377.6154357 -13.75 374.4375 C-10.21399054 372.06186615 -6.87418304 372.14287543 -2.6875 372 C10.13740873 371.34780704 22.95213125 367.73536875 32.25 358.4375 C41.3743502 347.46687366 41.82523432 333.19499889 41.7358551 319.64353943 C41.71830671 316.89943149 41.72625274 314.15635078 41.7401123 311.41223145 C41.76522947 305.58724757 41.75999641 299.76251579 41.75 293.9375 C41.73839793 287.17684602 41.73991778 280.41670367 41.77406311 273.65611267 C41.78106121 270.97848517 41.7646082 268.30170582 41.74694824 265.62414551 C41.75034644 244.25901456 48.80279117 227.25490503 63.6875 211.75 C67.5886107 207.95725349 71.89415992 204.68709498 76.25 201.4375 C74.5211195 200.02048411 72.79188254 198.60390314 71.0625 197.1875 C70.09957031 196.39859375 69.13664063 195.6096875 68.14453125 194.796875 C66.32634993 193.31484866 64.49122458 191.85312968 62.6328125 190.421875 C51.61735652 181.24834772 43.47902773 165.52425062 42.02713013 151.24570847 C41.72971766 146.14867899 41.7322922 141.05150612 41.7641449 135.94735527 C41.78163869 133.0568705 41.77377582 130.16736557 41.7598877 127.27687073 C41.73473204 121.14284437 41.74001556 115.0090568 41.75 108.875 C41.76158283 101.75449304 41.76017089 94.63447151 41.72593689 87.51402473 C41.71891312 84.6867524 41.73542538 81.8602752 41.75305176 79.0330658 C41.75092214 65.92154808 40.35659784 53.66521248 31.25 43.4375 C20.98691963 34.0498548 8.57637129 31.98326587 -4.85888672 31.38354492 C-9.26224033 31.09843881 -11.2045514 30.88072167 -14.73046875 28.015625 C-15.39691406 27.16484375 -16.06335938 26.3140625 -16.75 25.4375 C-17.348125 24.674375 -17.94625 23.91125 -18.5625 23.125 C-20.51039065 18.71661589 -20.50724919 14.79481246 -19.05859375 10.28515625 C-15.13540898 1.47030176 -9.08388457 -0.22846792 0 0 Z " fill="#3E8A50" transform="translate(834.75,300.5625)"/>
<path d="M0 0 C1.03479492 -0.04286133 2.06958984 -0.08572266 3.13574219 -0.12988281 C8.26272287 -0.17475428 11.69781414 -0.02082744 15.7265625 3.34375 C19.34469544 6.93393937 20.92882886 9.66682629 21 14.8125 C20.87562115 21.09777779 18.92370283 24.13976402 14.58203125 28.59765625 C10.45569202 31.25224965 6.81451411 31.24098709 2 31.5 C-11.08743476 32.52258469 -22.55911686 35.85659951 -31.6875 45.875 C-38.17197873 54.02999541 -40.68509382 62.86252801 -40.63037109 73.13476562 C-40.63399155 73.97000763 -40.637612 74.80524963 -40.64134216 75.665802 C-40.64820575 77.47014784 -40.65074733 79.2745143 -40.64939499 81.07887268 C-40.64842319 83.9485147 -40.66145197 86.81778877 -40.67837524 89.68737793 C-40.72442935 97.84331373 -40.74921261 105.99921195 -40.75585938 114.15527344 C-40.76091573 119.15615149 -40.78537642 124.15664674 -40.82118607 129.15739441 C-40.83089304 131.04849432 -40.83336657 132.93964752 -40.82801437 134.83076477 C-40.76821179 157.01340261 -45.80743608 174.73426303 -61.6171875 190.85546875 C-71.67485229 200.5 -71.67485229 200.5 -75.375 200.5 C-75.375 201.16 -75.375 201.82 -75.375 202.5 C-74.64925781 202.74621094 -73.92351562 202.99242187 -73.17578125 203.24609375 C-68.06181804 205.53560866 -64.36222627 209.641 -60.375 213.5 C-59.66730469 214.1703125 -58.95960938 214.840625 -58.23046875 215.53125 C-53.88282952 219.99036716 -50.88302478 224.80889403 -48.0625 230.3125 C-47.73685059 230.93970947 -47.41120117 231.56691895 -47.07568359 232.21313477 C-41.45645009 243.77157373 -40.95890975 255.22944986 -41.02544022 267.82328415 C-41.03935904 270.70993809 -41.03263565 273.59591829 -41.02059937 276.48257446 C-40.98989043 284.68113913 -40.99445129 292.87953881 -41.01464844 301.078125 C-41.0256437 306.11720424 -41.01221605 311.1557736 -40.98475266 316.19478226 C-40.97936146 318.09789343 -40.98324779 320.00105719 -40.99715042 321.90412521 C-41.09490095 335.43831774 -40.36733947 348.81235812 -31.23046875 359.7578125 C-20.9429215 369.41727792 -9.6313845 371.93165154 3.984375 372.40820312 C9.74168766 372.78167312 13.02610968 373.86484478 17.26318359 377.83862305 C20.73607804 382.07545466 21.00406108 385.70864153 20.87109375 391.03515625 C20.39421668 395.81149645 18.42770131 398.55440945 15.38671875 402.13671875 C10.37006066 406.20081804 3.66524883 405.13582243 -2.4375 405 C-3.68466797 405.00257813 -4.93183594 405.00515625 -6.21679688 405.0078125 C-25.48508454 404.80741429 -43.96999206 398.66252867 -58.125 385.25 C-66.54692421 376.31674468 -71.39358248 366.3333038 -74.375 354.5 C-74.63599739 353.46524033 -74.63599739 353.46524033 -74.90226746 352.40957642 C-76.75970995 343.7519022 -76.68566586 335.12589118 -76.71052551 326.31481552 C-76.71890757 323.43810998 -76.73949425 320.56170802 -76.76306152 317.68508911 C-76.81909493 310.54687983 -76.85462109 303.40859667 -76.89068604 296.27026367 C-76.92204013 290.21928131 -76.96130343 284.16844887 -77.01094055 278.11758804 C-77.03086609 275.2965409 -77.03929703 272.47561297 -77.04724121 269.6545105 C-77.06022286 267.91143366 -77.07374451 266.16836074 -77.08789062 264.42529297 C-77.08641777 263.26545395 -77.08641777 263.26545395 -77.08491516 262.08218384 C-77.1706686 254.4438125 -78.42893142 247.44181959 -82.25 240.75 C-82.74242187 239.86828125 -83.23484375 238.9865625 -83.7421875 238.078125 C-90.85243652 226.85141602 -101.11474463 221.6947241 -113.375 217.5 C-118.32894584 215.74493716 -121.42474877 214.03884805 -124.375 209.5 C-126.3086187 203.6991439 -126.36859019 197.6018254 -123.75 192.0625 C-119.16622514 187.11684817 -115.47983175 185.44997546 -109.0625 183.625 C-95.58648892 179.70666155 -87.51092097 170.83283444 -80.88952637 158.80064392 C-75.8373298 147.79026982 -75.94178181 134.9734212 -75.96430969 123.08073235 C-75.96888501 120.4497094 -75.95452233 117.81932558 -75.93591309 115.18836975 C-75.8934343 108.66208959 -75.8819441 102.13583004 -75.86968994 95.60943604 C-75.85806211 90.0658388 -75.83423575 84.52253942 -75.79499817 78.97906685 C-75.78164839 76.41632234 -75.78555589 73.8540087 -75.79040527 71.29124451 C-75.72497575 51.8737915 -72.22318905 34.87889753 -58.25 20.5625 C-42.08890146 4.88304705 -21.83513656 0.50596013 0 0 Z " fill="#3F8A50" transform="translate(420.375,301.5)"/>
<path d="M0 0 C3.72220938 0.65278926 5.64271916 1.14641705 8.26953125 3.9140625 C8.84896484 4.51089844 9.42839844 5.10773438 10.02539062 5.72265625 C10.91000977 6.66431641 10.91000977 6.66431641 11.8125 7.625 C15.25311072 11.22287386 18.66029211 14.76569376 22.46800232 17.97877502 C28.30831085 23.05723578 33.71571306 28.57596848 39.17993164 34.05053711 C40.39120715 35.26045531 41.60269479 36.47016117 42.81437683 37.67967224 C46.08519726 40.9459575 49.35287505 44.21536951 52.619838 47.4855125 C56.05034866 50.91856706 59.48331236 54.34916728 62.9158783 57.78016663 C68.67822134 63.54069389 74.43846084 69.30331826 80.19750977 75.06713867 C86.84168658 81.71675696 93.489458 88.3627653 100.13910776 95.00691026 C105.86347187 100.72672639 111.58587241 106.44850148 117.30665678 112.17189795 C120.71677872 115.58357339 124.12755954 118.99458275 127.54011726 122.40382195 C130.74928723 125.61008867 133.95597321 128.81881972 137.16081429 132.02941322 C138.3325672 133.20248063 139.50515747 134.37471236 140.67867661 135.54601288 C146.16603067 141.02395381 151.6106766 146.49587671 156.63428974 152.41055202 C158.67228003 154.78241642 160.87542497 156.96975852 163.1015625 159.1640625 C164.00390625 160.05867187 164.90625 160.95328125 165.8359375 161.875 C166.75632812 162.7825 167.67671875 163.69 168.625 164.625 C180.54696098 176.38137819 180.54696098 176.38137819 184 181 C184 181.66 184 182.32 184 183 C162.8856294 183.07012172 141.77127804 183.1230037 120.65681458 183.15543652 C110.85271306 183.17089678 101.04868395 183.19197024 91.24462891 183.22631836 C82.69811199 183.25624644 74.15164752 183.27558112 65.60507965 183.28226548 C61.08091234 183.28617196 56.55689505 183.29533524 52.03277588 183.31719017 C47.77122715 183.33760917 43.50988974 183.34382288 39.24829674 183.33932304 C37.68746478 183.34014583 36.12662549 183.34607921 34.56583595 183.35761642 C22.85975695 183.43987498 13.80919532 182.39901106 5 174 C0.74196039 168.33079452 -0.12558807 163.26449253 -0.12025452 156.33087158 C-0.12110894 155.66183485 -0.12196337 154.99279811 -0.12284368 154.30348754 C-0.12448985 152.06330033 -0.11899126 149.82318812 -0.11352539 147.58300781 C-0.11324331 145.97652691 -0.11340167 144.37004589 -0.1139679 142.76356506 C-0.11425504 138.40235949 -0.10837163 134.04118137 -0.10139394 129.67998219 C-0.09514668 125.12224784 -0.09455551 120.56451287 -0.09336853 116.0067749 C-0.09025927 107.37603081 -0.08205133 98.74529936 -0.07201904 90.11456084 C-0.06084534 80.2887801 -0.05534428 70.46299875 -0.05032361 60.63721323 C-0.03986839 40.42480176 -0.02227677 20.21240167 0 0 Z " fill="#E5E0D9" transform="translate(911,76)"/>
<path d="M0 0 C0.92997803 0.00491455 1.85995605 0.0098291 2.81811523 0.01489258 C20.54817973 0.31519333 37.87096975 6.73194436 51 18.875 C65.287136 34.01466058 70.82778044 52.41901601 70.2578125 72.9609375 C69.20539111 89.85267942 60.18761811 105.63507738 48.0625 117 C31.70386397 131.10565023 12.05626168 135.77524917 -9.125 134.3125 C-27.53718501 131.90335169 -43.8415399 121.63038073 -55.08984375 107.1484375 C-66.6649896 91.01877169 -69.03425107 73.3369716 -66.4375 54 C-63.07238323 37.08222118 -52.70835514 21.7971945 -38.41455078 12.15917969 C-31.70301335 7.89037026 -24.84710398 4.35124716 -17.125 2.3125 C-16.09503906 1.96574219 -15.06507813 1.61898437 -14.00390625 1.26171875 C-9.25422598 0.09941029 -4.87030654 -0.03035418 0 0 Z " fill="#F3F1ED" transform="translate(755.125,936.6875)"/>
<path d="M0 0 C11.7335165 9.78097176 19.56419228 24.43142608 21.76171875 39.4609375 C22.15216083 43.84364989 22.28759251 48.19511293 22.32421875 52.59375 C22.33356445 53.38845703 22.34291016 54.18316406 22.35253906 55.00195312 C22.32034481 60.72262394 22.32034481 60.72262394 20.07421875 62.96875 C17.00034206 63.15720127 14.01717026 63.22036751 10.94287109 63.19580078 C9.9964827 63.19609283 9.0500943 63.19638489 8.07502747 63.19668579 C4.93664484 63.1952888 1.79849757 63.17971024 -1.33984375 63.1640625 C-3.51174795 63.16033368 -5.68365382 63.15748609 -7.8555603 63.15548706 C-13.57996237 63.14784027 -19.30426341 63.12818281 -25.02862549 63.1060791 C-30.866726 63.08564317 -36.7048428 63.07649017 -42.54296875 63.06640625 C-54.00395071 63.0449379 -65.46485759 63.01078937 -76.92578125 62.96875 C-76.45682693 64.57469158 -75.98449795 66.17964798 -75.51074219 67.78417969 C-75.11674225 69.12497589 -75.11674225 69.12497589 -74.71478271 70.49285889 C-71.70371402 79.94160967 -65.53332772 86.69381146 -56.86328125 91.21875 C-45.88969807 96.50834189 -33.50066056 96.69725501 -21.98828125 92.90625 C-16.35759047 90.81792792 -11.74203345 88.18888336 -7.07421875 84.421875 C-4.40808533 82.61859931 -3.18437402 81.82645337 0.07421875 81.96875 C2.84502942 83.85397853 5.07551623 86.18019763 7.38671875 88.59375 C8.03189453 89.22410156 8.67707031 89.85445312 9.34179688 90.50390625 C13.8843805 95.12820831 13.8843805 95.12820831 14.6953125 98.71875 C13.02089078 104.78457961 5.59932345 108.43589732 0.57421875 111.59375 C-16.54118222 121.274308 -38.32674285 124.16487664 -57.42578125 119.40625 C-75.02010394 114.27907007 -89.37898031 104.60736845 -98.87109375 88.7109375 C-107.54273682 72.49242515 -110.30227769 52.23339364 -105.48730469 34.26757812 C-99.82664226 16.24913153 -88.63981332 3.76242516 -72.92578125 -6.03125 C-72.21550781 -6.4746875 -71.50523437 -6.918125 -70.7734375 -7.375 C-48.75455653 -19.66460798 -19.7096164 -13.68357881 0 0 Z " fill="#F5F2EE" transform="translate(586.92578125,950.03125)"/>
<path d="M0 0 C9.74868679 6.73597309 16.57083394 14.48447423 19.875 25.9375 C20.19307617 26.99130859 20.19307617 26.99130859 20.51757812 28.06640625 C21.09006241 29.97709513 21.63980732 31.89455761 22.1875 33.8125 C22.4625235 34.66236732 22.4625235 34.66236732 22.74310303 35.52940369 C23.42038545 39.00895258 23.34354378 42.49028238 23.34863281 46.02172852 C23.35608017 47.2589566 23.35608017 47.2589566 23.36367798 48.5211792 C23.37826209 51.24459673 23.38509356 53.96795612 23.390625 56.69140625 C23.39637733 58.58422345 23.40213505 60.47704062 23.40789795 62.36985779 C23.41839571 66.3350349 23.42424712 70.30019181 23.42773438 74.26538086 C23.43323188 79.35219815 23.45729172 84.43874948 23.48570633 89.52548313 C23.5043005 93.4330474 23.50953647 97.340547 23.51107025 101.24815178 C23.51410206 103.12408854 23.52214831 105.00002402 23.53525543 106.87591743 C23.55225688 109.49504227 23.5504509 112.11350883 23.54394531 114.73266602 C23.5531601 115.51040878 23.56237488 116.28815155 23.5718689 117.08946228 C23.53107247 122.31649485 23.53107247 122.31649485 21.81549072 124.79322815 C19.49038669 126.24895702 17.69862395 126.20099174 14.96875 126.2109375 C13.95425781 126.21480469 12.93976563 126.21867187 11.89453125 126.22265625 C10.83621094 126.21105469 9.77789063 126.19945312 8.6875 126.1875 C7.62917969 126.19910156 6.57085938 126.21070313 5.48046875 126.22265625 C3.95873047 126.21685547 3.95873047 126.21685547 2.40625 126.2109375 C1.0130957 126.20586182 1.0130957 126.20586182 -0.40820312 126.20068359 C-2.8125 125.8125 -2.8125 125.8125 -4.43971252 124.75186157 C-6.51455415 121.82069547 -6.21898398 118.85486151 -6.18139648 115.39453125 C-6.1870462 114.26457985 -6.1870462 114.26457985 -6.19281006 113.11180115 C-6.19924715 111.47489669 -6.19890814 109.83795486 -6.19262505 108.2010498 C-6.18351155 105.60155381 -6.19374469 103.00277886 -6.20924377 100.40332031 C-6.24931428 93.01221882 -6.2505593 85.62117251 -6.24829102 78.22998047 C-6.2482396 73.70706124 -6.26757114 69.18452629 -6.29762459 64.66171265 C-6.30836621 62.11641671 -6.29636385 59.57188196 -6.28379822 57.02661133 C-6.30713967 46.7255917 -7.31298301 38.3705564 -12.9375 29.4375 C-18.81046808 24.0752248 -24.36174394 21.51558344 -32.375 21.375 C-41.81096902 21.80692816 -48.89474743 22.9677195 -55.8125 29.8125 C-61.87281896 37.23022072 -65.27804092 45.04056581 -65.21313477 54.66552734 C-65.22011383 55.40475433 -65.2270929 56.14398132 -65.23428345 56.90560913 C-65.25408874 59.32000488 -65.25375933 61.73396823 -65.25390625 64.1484375 C-65.26568886 65.83616272 -65.27905525 67.52387757 -65.29393005 69.21157837 C-65.32997011 73.6330284 -65.3502807 78.05438623 -65.36547852 82.47595215 C-65.39040151 89.57357308 -65.42984087 96.67099075 -65.48737907 103.76842117 C-65.50373115 106.24689738 -65.50748643 108.72518129 -65.51039124 111.20370483 C-65.52016178 112.71441995 -65.53042411 114.22513199 -65.54125977 115.73583984 C-65.53870682 116.42673706 -65.53615387 117.11763428 -65.53352356 117.82946777 C-65.58501036 122.58501036 -65.58501036 122.58501036 -67.8125 124.8125 C-70.30273438 125.07128906 -70.30273438 125.07128906 -73.40625 125.078125 C-74.51871094 125.08070313 -75.63117187 125.08328125 -76.77734375 125.0859375 C-77.94394531 125.07820313 -79.11054687 125.07046875 -80.3125 125.0625 C-81.47910156 125.07023437 -82.64570312 125.07796875 -83.84765625 125.0859375 C-84.96011719 125.08335937 -86.07257812 125.08078125 -87.21875 125.078125 C-88.24291016 125.07586914 -89.26707031 125.07361328 -90.32226562 125.07128906 C-92.8125 124.8125 -92.8125 124.8125 -94.8125 122.8125 C-95.06418228 120.65384769 -95.06418228 120.65384769 -95.06646729 117.92262268 C-95.07492676 116.37259048 -95.07492676 116.37259048 -95.08355713 114.79124451 C-95.07950867 113.65300735 -95.07546021 112.5147702 -95.07128906 111.34204102 C-95.0747937 110.14687866 -95.07829834 108.95171631 -95.08190918 107.72033691 C-95.08921829 104.43724649 -95.0874838 101.15431656 -95.08115101 97.87122846 C-95.07609605 94.43863916 -95.08078116 91.00606078 -95.08392334 87.57347107 C-95.08756495 81.80734323 -95.08275931 76.04126656 -95.07324219 70.27514648 C-95.06236239 63.60636558 -95.06587893 56.937707 -95.076895 50.26892906 C-95.08596849 44.54743482 -95.0872527 38.82597742 -95.08201766 33.1044783 C-95.07889763 29.68551786 -95.0784894 26.26661492 -95.08509064 22.84765816 C-95.09015217 19.03580504 -95.08245035 15.22418892 -95.07128906 11.41235352 C-95.07533752 10.27614059 -95.07938599 9.13992767 -95.08355713 7.96928406 C-95.07791748 6.93310944 -95.07227783 5.89693481 -95.06646729 4.82936096 C-95.06571323 3.92767968 -95.06495918 3.0259984 -95.06418228 2.09699345 C-94.8125 -0.1875 -94.8125 -0.1875 -92.8125 -3.1875 C-90.42993164 -3.57568359 -90.42993164 -3.57568359 -87.47265625 -3.5859375 C-86.40982422 -3.58980469 -85.34699219 -3.59367188 -84.25195312 -3.59765625 C-82.58036133 -3.58025391 -82.58036133 -3.58025391 -80.875 -3.5625 C-79.76447266 -3.57410156 -78.65394531 -3.58570313 -77.50976562 -3.59765625 C-75.91358398 -3.59185547 -75.91358398 -3.59185547 -74.28515625 -3.5859375 C-73.30812744 -3.58255371 -72.33109863 -3.57916992 -71.32446289 -3.57568359 C-68.8125 -3.1875 -68.8125 -3.1875 -67.00244141 -1.87231445 C-65.05590735 0.88374454 -65.27684824 3.68970829 -65.125 7 C-65.02638672 8.90845703 -65.02638672 8.90845703 -64.92578125 10.85546875 C-64.88839844 11.83128906 -64.85101562 12.80710937 -64.8125 13.8125 C-64.36261719 13.24402344 -63.91273438 12.67554688 -63.44921875 12.08984375 C-48.08662716 -6.35142351 -21.20669531 -12.81176903 0 0 Z " fill="#F4F1ED" transform="translate(941.8125,943.1875)"/>
<path d="M0 0 C1.06412109 0.00064453 2.12824219 0.00128906 3.22460938 0.00195312 C4.89040039 0.02612305 4.89040039 0.02612305 6.58984375 0.05078125 C8.26143555 0.04594727 8.26143555 0.04594727 9.96679688 0.04101562 C18.26040236 0.09633986 18.26040236 0.09633986 20.52734375 2.36328125 C20.72677446 4.7548265 20.80108643 7.03095968 20.78804016 9.42382812 C20.79186571 10.15916527 20.79569126 10.89450241 20.79963273 11.6521225 C20.80999411 14.12883039 20.80596472 16.60530781 20.80200195 19.08203125 C20.80634667 20.85245988 20.811529 22.62288662 20.81748962 24.39331055 C20.83091594 29.21137564 20.83145433 34.02936247 20.82892632 38.84744263 C20.8278592 42.86365139 20.83273327 46.87984415 20.83753175 50.8960495 C20.84863923 60.36690968 20.84905719 69.8377302 20.84301758 79.30859375 C20.83697377 89.09366109 20.84929629 98.87858479 20.87058765 108.66362762 C20.88817311 117.05259878 20.8942099 125.44152408 20.8909499 133.830513 C20.88913221 138.84627688 20.89182147 143.86193828 20.90566444 148.87768555 C20.91818883 153.59233082 20.91635015 158.30675123 20.90325356 163.02139282 C20.90087651 164.75566685 20.9036625 166.48995644 20.91187668 168.22421265 C20.92225111 170.58398532 20.91431968 172.94299035 20.90156555 175.30273438 C20.90893984 175.99591515 20.91631412 176.68909592 20.92391187 177.40328217 C20.90207386 179.31164551 20.90207386 179.31164551 20.52734375 182.36328125 C17.21917725 184.56872559 16.15962543 184.6195526 12.30859375 184.62890625 C11.29410156 184.63148438 10.27960937 184.6340625 9.234375 184.63671875 C8.17605469 184.62898438 7.11773438 184.62125 6.02734375 184.61328125 C4.96902344 184.62101562 3.91070313 184.62875 2.8203125 184.63671875 C1.29857422 184.63285156 1.29857422 184.63285156 -0.25390625 184.62890625 C-1.18267578 184.62665039 -2.11144531 184.62439453 -3.06835938 184.62207031 C-5.47265625 184.36328125 -5.47265625 184.36328125 -8.47265625 182.36328125 C-8.85017967 179.33005619 -8.85017967 179.33005619 -8.85360718 175.34742737 C-8.86062714 174.25160533 -8.86062714 174.25160533 -8.86778891 173.13364547 C-8.87980453 170.67298088 -8.87025641 168.2128665 -8.86083984 165.75219727 C-8.86490268 163.99324212 -8.87024293 162.23428952 -8.87677002 160.4753418 C-8.89048477 155.68815813 -8.88512762 150.90116772 -8.87563276 146.11398053 C-8.86805644 141.11186517 -8.87507623 136.10976675 -8.87979126 131.10765076 C-8.88525525 122.705119 -8.87804088 114.30266625 -8.86376953 105.90014648 C-8.8474471 96.17757474 -8.85272599 86.45519175 -8.86924875 76.73262459 C-8.88285164 68.39543494 -8.88478898 60.0583022 -8.87693274 51.72110504 C-8.87224895 46.73717557 -8.8716506 41.75333489 -8.88154221 36.76941109 C-8.89019202 32.08347593 -8.88422639 27.39778465 -8.86685944 22.71187592 C-8.86288373 20.98931471 -8.86404709 19.26673307 -8.87064743 17.54417992 C-8.87881059 15.19787999 -8.86860548 12.85236809 -8.85360718 10.50611877 C-8.8524761 9.19147424 -8.85134502 7.8768297 -8.85017967 6.52234745 C-8.47265625 3.36328125 -8.47265625 3.36328125 -7.1058445 1.44012356 C-4.71847544 -0.1339877 -2.839151 -0.00866237 0 0 Z " fill="#F5F2EE" transform="translate(643.47265625,884.63671875)"/>
<path d="M0 0 C5.5584813 3.96375947 9.34463236 8.48437021 12.54296875 14.4921875 C12.95675781 15.26820313 13.37054687 16.04421875 13.796875 16.84375 C18.48350665 27.39275364 18.30277801 40.83371899 14.48046875 51.6171875 C10.06047847 61.38834579 3.62717336 69.39826957 -6.328125 73.74609375 C-16.41090104 77.28802364 -27.04440048 78.80041311 -37.08642578 74.38696289 C-48.30490921 68.83528293 -54.01412317 62.01275148 -58.45703125 50.4921875 C-58.82441406 49.74710938 -59.19179688 49.00203125 -59.5703125 48.234375 C-62.53978175 39.05125864 -61.77039269 25.08831916 -57.45703125 16.4921875 C-51.68414559 6.44309024 -43.8418811 -1.35128287 -32.7265625 -5.08984375 C-21.36978037 -7.18136817 -9.88481011 -6.06603609 0 0 Z " fill="#3E894F" transform="translate(778.45703125,968.5078125)"/>
<path d="M0 0 C8.848125 -0.0825 17.69625 -0.165 26.8125 -0.25 C30.96936401 -0.30462402 30.96936401 -0.30462402 35.21020508 -0.36035156 C37.43830595 -0.37204804 39.66641546 -0.38223759 41.89453125 -0.390625 C43.59144104 -0.4213208 43.59144104 -0.4213208 45.32263184 -0.45263672 C55.60853625 -0.4570948 64.65596862 1.68781 72.27734375 8.93359375 C77.67359993 15.40665388 80.411272 23.00453957 80.2734375 31.37109375 C79.34309583 40.31566438 75.94989067 48.18736417 69 54 C66.42105668 55.6100319 63.80101727 56.83339074 61 58 C60.41820984 58.34159149 59.83641968 58.68318298 59.23699951 59.03512573 C56.45337151 60.23577465 54.34264775 60.24045419 51.31347656 60.22705078 C50.1567041 60.22680908 48.99993164 60.22656738 47.80810547 60.22631836 C46.59783691 60.21608643 45.38756836 60.20585449 44.140625 60.1953125 C43.02413574 60.19329834 41.90764648 60.19128418 40.75732422 60.18920898 C36.58817433 60.17874794 32.41908302 60.15082537 28.25 60.125 C18.9275 60.08375 9.605 60.0425 0 60 C0 40.2 0 20.4 0 0 Z " fill="#3D894F" transform="translate(349,914)"/>
<path d="M0 0 C7.01775152 4.94363845 12.37538013 10.71108423 15 19 C15.495 22.96 15.495 22.96 16 27 C-6.77 27 -29.54 27 -53 27 C-51.82473961 16.42265646 -48.91478386 9.88690775 -40.6875 3.0625 C-28.58372436 -5.39997171 -13.27161806 -7.49432314 0 0 Z " fill="#418C53" transform="translate(564,965)"/>
</svg>
